<mxfile host="app.diagrams.net" modified="2021-03-04T02:43:15.159Z" agent="5.0 (Windows NT 10.0; Win64; x64) AppleWebKit/537.36 (KHTML, like Gecko) Chrome/88.0.4324.190 Safari/537.36" etag="xLFry5OGtcBabQpgNNdu" version="14.4.3" type="github">
  <diagram id="DhOB0_4Vei3-ugiGoxcK" name="第 1 页">
    <mxGraphModel dx="2034" dy="457" grid="1" gridSize="10" guides="1" tooltips="1" connect="1" arrows="1" fold="1" page="1" pageScale="1" pageWidth="1169" pageHeight="827" math="0" shadow="0">
      <root>
        <mxCell id="0" />
        <mxCell id="1" parent="0" />
        <mxCell id="cQLUrG2B6Ire7KLlbWOE-587" value="三值化" style="text;html=1;align=center;verticalAlign=middle;resizable=0;points=[];autosize=1;fontSize=10.5;" vertex="1" parent="1">
          <mxGeometry x="-125" y="250" width="50" height="20" as="geometry" />
        </mxCell>
        <mxCell id="cQLUrG2B6Ire7KLlbWOE-588" value="第一阶段" style="text;html=1;align=center;verticalAlign=middle;resizable=0;points=[];autosize=1;fontSize=10.5;" vertex="1" parent="1">
          <mxGeometry x="130" y="250" width="60" height="20" as="geometry" />
        </mxCell>
        <mxCell id="cQLUrG2B6Ire7KLlbWOE-589" value="第二阶段" style="text;html=1;align=center;verticalAlign=middle;resizable=0;points=[];autosize=1;fontSize=10.5;" vertex="1" parent="1">
          <mxGeometry x="130" y="657" width="60" height="20" as="geometry" />
        </mxCell>
        <mxCell id="cQLUrG2B6Ire7KLlbWOE-590" value="全特征直方统计" style="text;html=1;align=center;verticalAlign=middle;resizable=0;points=[];autosize=1;fontSize=10.5;" vertex="1" parent="1">
          <mxGeometry x="-150" y="657" width="100" height="20" as="geometry" />
        </mxCell>
        <mxCell id="cQLUrG2B6Ire7KLlbWOE-591" value="" style="group" vertex="1" connectable="0" parent="1">
          <mxGeometry x="-230" y="280" width="490" height="370" as="geometry" />
        </mxCell>
        <mxCell id="cQLUrG2B6Ire7KLlbWOE-554" value="" style="whiteSpace=wrap;html=1;aspect=fixed;fillColor=#CCCCCC;" vertex="1" parent="cQLUrG2B6Ire7KLlbWOE-591">
          <mxGeometry x="404.70171875" y="190.8395652173913" width="10.52734375" height="10.52734375" as="geometry" />
        </mxCell>
        <mxCell id="cQLUrG2B6Ire7KLlbWOE-361" value="" style="whiteSpace=wrap;html=1;aspect=fixed;" vertex="1" parent="cQLUrG2B6Ire7KLlbWOE-591">
          <mxGeometry x="368.45703125" y="150.41304347826087" width="55.5078125" height="55.5078125" as="geometry" />
        </mxCell>
        <mxCell id="cQLUrG2B6Ire7KLlbWOE-362" value="" style="whiteSpace=wrap;html=1;aspect=fixed;" vertex="1" parent="cQLUrG2B6Ire7KLlbWOE-591">
          <mxGeometry x="385.109375" y="167.30434782608697" width="55.5078125" height="55.5078125" as="geometry" />
        </mxCell>
        <mxCell id="cQLUrG2B6Ire7KLlbWOE-552" value="" style="whiteSpace=wrap;html=1;aspect=fixed;" vertex="1" parent="cQLUrG2B6Ire7KLlbWOE-591">
          <mxGeometry x="293.68609375" y="242.35804347826084" width="55.5078125" height="55.5078125" as="geometry" />
        </mxCell>
        <mxCell id="cQLUrG2B6Ire7KLlbWOE-553" value="" style="whiteSpace=wrap;html=1;aspect=fixed;" vertex="1" parent="cQLUrG2B6Ire7KLlbWOE-591">
          <mxGeometry x="340.00640625" y="243.92652173913044" width="7.65625" height="7.65625" as="geometry" />
        </mxCell>
        <mxCell id="cQLUrG2B6Ire7KLlbWOE-562" value="" style="endArrow=none;html=1;entryX=1;entryY=0;entryDx=0;entryDy=0;exitX=0;exitY=1;exitDx=0;exitDy=0;" edge="1" parent="cQLUrG2B6Ire7KLlbWOE-591" source="cQLUrG2B6Ire7KLlbWOE-554" target="cQLUrG2B6Ire7KLlbWOE-553">
          <mxGeometry width="50" height="50" relative="1" as="geometry">
            <mxPoint x="412.35796875" y="209.94282608695653" as="sourcePoint" />
            <mxPoint x="358.38140625" y="255.1873913043478" as="targetPoint" />
          </mxGeometry>
        </mxCell>
        <mxCell id="cQLUrG2B6Ire7KLlbWOE-563" value="W&lt;font size=&quot;1&quot;&gt;&lt;sup&gt;2&lt;/sup&gt;&lt;sub&gt;2&lt;/sub&gt;&lt;/font&gt;" style="edgeLabel;html=1;align=center;verticalAlign=middle;resizable=0;points=[];" vertex="1" connectable="0" parent="cQLUrG2B6Ire7KLlbWOE-562">
          <mxGeometry x="0.2322" y="-1" relative="1" as="geometry">
            <mxPoint as="offset" />
          </mxGeometry>
        </mxCell>
        <mxCell id="cQLUrG2B6Ire7KLlbWOE-564" value="W&lt;sup&gt;2&lt;/sup&gt;&lt;sub&gt;1&lt;/sub&gt;" style="edgeLabel;html=1;align=center;verticalAlign=middle;resizable=0;points=[];" vertex="1" connectable="0" parent="cQLUrG2B6Ire7KLlbWOE-562">
          <mxGeometry x="0.7287" y="-1" relative="1" as="geometry">
            <mxPoint y="-1" as="offset" />
          </mxGeometry>
        </mxCell>
        <mxCell id="cQLUrG2B6Ire7KLlbWOE-555" value="" style="whiteSpace=wrap;html=1;aspect=fixed;" vertex="1" parent="cQLUrG2B6Ire7KLlbWOE-591">
          <mxGeometry x="296.5571875" y="245.57543478260865" width="55.5078125" height="55.5078125" as="geometry" />
        </mxCell>
        <mxCell id="cQLUrG2B6Ire7KLlbWOE-556" value="" style="shape=curlyBracket;whiteSpace=wrap;html=1;rounded=1;fillColor=none;direction=south;rotation=-135;" vertex="1" parent="cQLUrG2B6Ire7KLlbWOE-591">
          <mxGeometry x="288.640625" y="305.6521739130435" width="11.73703125" height="8.043478260869566" as="geometry" />
        </mxCell>
        <mxCell id="cQLUrG2B6Ire7KLlbWOE-557" value="" style="whiteSpace=wrap;html=1;aspect=fixed;" vertex="1" parent="cQLUrG2B6Ire7KLlbWOE-591">
          <mxGeometry x="343.06890625" y="247.14391304347825" width="7.65625" height="7.65625" as="geometry" />
        </mxCell>
        <mxCell id="cQLUrG2B6Ire7KLlbWOE-565" value="" style="endArrow=none;html=1;entryX=1;entryY=0.75;entryDx=0;entryDy=0;exitX=1;exitY=1;exitDx=0;exitDy=0;" edge="1" parent="cQLUrG2B6Ire7KLlbWOE-591" source="cQLUrG2B6Ire7KLlbWOE-554" target="cQLUrG2B6Ire7KLlbWOE-557">
          <mxGeometry width="50" height="50" relative="1" as="geometry">
            <mxPoint x="412.35796875" y="206.92652173913044" as="sourcePoint" />
            <mxPoint x="364.50640625" y="271.27434782608697" as="targetPoint" />
          </mxGeometry>
        </mxCell>
        <mxCell id="cQLUrG2B6Ire7KLlbWOE-558" value="" style="whiteSpace=wrap;html=1;aspect=fixed;" vertex="1" parent="cQLUrG2B6Ire7KLlbWOE-591">
          <mxGeometry x="303.0496875" y="253.3936956521739" width="55.5078125" height="55.5078125" as="geometry" />
        </mxCell>
        <mxCell id="cQLUrG2B6Ire7KLlbWOE-559" value="" style="whiteSpace=wrap;html=1;aspect=fixed;" vertex="1" parent="cQLUrG2B6Ire7KLlbWOE-591">
          <mxGeometry x="349.19390625" y="255.1873913043478" width="7.65625" height="7.65625" as="geometry" />
        </mxCell>
        <mxCell id="cQLUrG2B6Ire7KLlbWOE-560" value="" style="endArrow=none;html=1;exitX=1;exitY=1;exitDx=0;exitDy=0;entryX=1;entryY=1;entryDx=0;entryDy=0;" edge="1" parent="cQLUrG2B6Ire7KLlbWOE-591" source="cQLUrG2B6Ire7KLlbWOE-554" target="cQLUrG2B6Ire7KLlbWOE-559">
          <mxGeometry width="50" height="50" relative="1" as="geometry">
            <mxPoint x="228.60796875000003" y="236.28521739130434" as="sourcePoint" />
            <mxPoint x="266.88921875" y="196.06782608695653" as="targetPoint" />
          </mxGeometry>
        </mxCell>
        <mxCell id="cQLUrG2B6Ire7KLlbWOE-561" value="W&lt;span style=&quot;font-size: 8.33333px&quot;&gt;&lt;sup&gt;2&lt;/sup&gt;&lt;sub&gt;8&lt;/sub&gt;&lt;/span&gt;" style="edgeLabel;html=1;align=center;verticalAlign=middle;resizable=0;points=[];" vertex="1" connectable="0" parent="cQLUrG2B6Ire7KLlbWOE-560">
          <mxGeometry x="0.1822" y="1" relative="1" as="geometry">
            <mxPoint as="offset" />
          </mxGeometry>
        </mxCell>
        <mxCell id="cQLUrG2B6Ire7KLlbWOE-538" value="" style="whiteSpace=wrap;html=1;aspect=fixed;" vertex="1" parent="cQLUrG2B6Ire7KLlbWOE-591">
          <mxGeometry x="313.4621875" y="258.75869565217386" width="55.5078125" height="55.5078125" as="geometry" />
        </mxCell>
        <mxCell id="cQLUrG2B6Ire7KLlbWOE-539" value="" style="whiteSpace=wrap;html=1;aspect=fixed;" vertex="1" parent="cQLUrG2B6Ire7KLlbWOE-591">
          <mxGeometry x="359.7825" y="260.32717391304345" width="7.65625" height="7.65625" as="geometry" />
        </mxCell>
        <mxCell id="cQLUrG2B6Ire7KLlbWOE-540" value="" style="whiteSpace=wrap;html=1;aspect=fixed;fillColor=#CCCCCC;" vertex="1" parent="cQLUrG2B6Ire7KLlbWOE-591">
          <mxGeometry x="424.4778125" y="207.24021739130433" width="10.52734375" height="10.52734375" as="geometry" />
        </mxCell>
        <mxCell id="cQLUrG2B6Ire7KLlbWOE-541" value="" style="whiteSpace=wrap;html=1;aspect=fixed;" vertex="1" parent="cQLUrG2B6Ire7KLlbWOE-591">
          <mxGeometry x="316.33328125" y="261.97608695652167" width="55.5078125" height="55.5078125" as="geometry" />
        </mxCell>
        <mxCell id="cQLUrG2B6Ire7KLlbWOE-542" value="" style="shape=curlyBracket;whiteSpace=wrap;html=1;rounded=1;fillColor=none;direction=south;rotation=-135;" vertex="1" parent="cQLUrG2B6Ire7KLlbWOE-591">
          <mxGeometry x="308.41671875" y="322.05282608695654" width="11.73703125" height="8.043478260869566" as="geometry" />
        </mxCell>
        <mxCell id="cQLUrG2B6Ire7KLlbWOE-543" value="" style="whiteSpace=wrap;html=1;aspect=fixed;" vertex="1" parent="cQLUrG2B6Ire7KLlbWOE-591">
          <mxGeometry x="362.845" y="263.54456521739127" width="7.65625" height="7.65625" as="geometry" />
        </mxCell>
        <mxCell id="cQLUrG2B6Ire7KLlbWOE-544" value="" style="whiteSpace=wrap;html=1;aspect=fixed;" vertex="1" parent="cQLUrG2B6Ire7KLlbWOE-591">
          <mxGeometry x="322.82578125" y="269.79434782608695" width="55.5078125" height="55.5078125" as="geometry" />
        </mxCell>
        <mxCell id="cQLUrG2B6Ire7KLlbWOE-545" value="" style="whiteSpace=wrap;html=1;aspect=fixed;" vertex="1" parent="cQLUrG2B6Ire7KLlbWOE-591">
          <mxGeometry x="368.97" y="271.5880434782609" width="7.65625" height="7.65625" as="geometry" />
        </mxCell>
        <mxCell id="cQLUrG2B6Ire7KLlbWOE-546" value="" style="endArrow=none;html=1;exitX=1;exitY=1;exitDx=0;exitDy=0;entryX=1;entryY=1;entryDx=0;entryDy=0;" edge="1" parent="cQLUrG2B6Ire7KLlbWOE-591" source="cQLUrG2B6Ire7KLlbWOE-540" target="cQLUrG2B6Ire7KLlbWOE-545">
          <mxGeometry width="50" height="50" relative="1" as="geometry">
            <mxPoint x="248.3840625" y="252.6858695652174" as="sourcePoint" />
            <mxPoint x="286.6653125" y="212.46847826086955" as="targetPoint" />
          </mxGeometry>
        </mxCell>
        <mxCell id="cQLUrG2B6Ire7KLlbWOE-547" value="W&lt;span style=&quot;font-size: 8.33333px&quot;&gt;&lt;sup&gt;2&lt;/sup&gt;&lt;sub&gt;8&lt;/sub&gt;&lt;/span&gt;" style="edgeLabel;html=1;align=center;verticalAlign=middle;resizable=0;points=[];" vertex="1" connectable="0" parent="cQLUrG2B6Ire7KLlbWOE-546">
          <mxGeometry x="0.1822" y="1" relative="1" as="geometry">
            <mxPoint as="offset" />
          </mxGeometry>
        </mxCell>
        <mxCell id="cQLUrG2B6Ire7KLlbWOE-548" value="" style="endArrow=none;html=1;entryX=1;entryY=0;entryDx=0;entryDy=0;exitX=0;exitY=1;exitDx=0;exitDy=0;" edge="1" parent="cQLUrG2B6Ire7KLlbWOE-591" source="cQLUrG2B6Ire7KLlbWOE-540" target="cQLUrG2B6Ire7KLlbWOE-539">
          <mxGeometry width="50" height="50" relative="1" as="geometry">
            <mxPoint x="432.1340625" y="226.34347826086955" as="sourcePoint" />
            <mxPoint x="378.1575" y="271.5880434782609" as="targetPoint" />
          </mxGeometry>
        </mxCell>
        <mxCell id="cQLUrG2B6Ire7KLlbWOE-549" value="W&lt;font size=&quot;1&quot;&gt;&lt;sup&gt;2&lt;/sup&gt;&lt;sub&gt;2&lt;/sub&gt;&lt;/font&gt;" style="edgeLabel;html=1;align=center;verticalAlign=middle;resizable=0;points=[];" vertex="1" connectable="0" parent="cQLUrG2B6Ire7KLlbWOE-548">
          <mxGeometry x="0.2322" y="-1" relative="1" as="geometry">
            <mxPoint as="offset" />
          </mxGeometry>
        </mxCell>
        <mxCell id="cQLUrG2B6Ire7KLlbWOE-550" value="W&lt;sup&gt;2&lt;/sup&gt;&lt;sub&gt;1&lt;/sub&gt;" style="edgeLabel;html=1;align=center;verticalAlign=middle;resizable=0;points=[];" vertex="1" connectable="0" parent="cQLUrG2B6Ire7KLlbWOE-548">
          <mxGeometry x="0.7287" y="-1" relative="1" as="geometry">
            <mxPoint y="-1" as="offset" />
          </mxGeometry>
        </mxCell>
        <mxCell id="cQLUrG2B6Ire7KLlbWOE-551" value="" style="endArrow=none;html=1;entryX=1;entryY=0.75;entryDx=0;entryDy=0;exitX=1;exitY=1;exitDx=0;exitDy=0;" edge="1" parent="cQLUrG2B6Ire7KLlbWOE-591" source="cQLUrG2B6Ire7KLlbWOE-540" target="cQLUrG2B6Ire7KLlbWOE-543">
          <mxGeometry width="50" height="50" relative="1" as="geometry">
            <mxPoint x="432.1340625" y="223.32717391304345" as="sourcePoint" />
            <mxPoint x="384.2825" y="287.675" as="targetPoint" />
          </mxGeometry>
        </mxCell>
        <mxCell id="cQLUrG2B6Ire7KLlbWOE-363" value="" style="whiteSpace=wrap;html=1;aspect=fixed;" vertex="1" parent="cQLUrG2B6Ire7KLlbWOE-591">
          <mxGeometry x="431.4296875" y="199.07608695652175" width="55.5078125" height="55.5078125" as="geometry" />
        </mxCell>
        <mxCell id="cQLUrG2B6Ire7KLlbWOE-444" value="" style="whiteSpace=wrap;html=1;aspect=fixed;" vertex="1" parent="cQLUrG2B6Ire7KLlbWOE-591">
          <mxGeometry x="348.359375" y="292.82282608695647" width="55.5078125" height="55.5078125" as="geometry" />
        </mxCell>
        <mxCell id="cQLUrG2B6Ire7KLlbWOE-529" value="" style="whiteSpace=wrap;html=1;aspect=fixed;" vertex="1" parent="cQLUrG2B6Ire7KLlbWOE-591">
          <mxGeometry x="394.6796875" y="294.3913043478261" width="7.65625" height="7.65625" as="geometry" />
        </mxCell>
        <mxCell id="cQLUrG2B6Ire7KLlbWOE-387" value="" style="rounded=1;whiteSpace=wrap;html=1;fillColor=none;" vertex="1" parent="cQLUrG2B6Ire7KLlbWOE-591">
          <mxGeometry x="252.65625" width="237.34375" height="136.73913043478262" as="geometry" />
        </mxCell>
        <mxCell id="cQLUrG2B6Ire7KLlbWOE-301" value="" style="whiteSpace=wrap;html=1;aspect=fixed;" vertex="1" parent="cQLUrG2B6Ire7KLlbWOE-591">
          <mxGeometry x="137.8125" y="19.803043478260875" width="92.44921875" height="92.44921875" as="geometry" />
        </mxCell>
        <mxCell id="cQLUrG2B6Ire7KLlbWOE-302" value="" style="whiteSpace=wrap;html=1;aspect=fixed;" vertex="1" parent="cQLUrG2B6Ire7KLlbWOE-591">
          <mxGeometry x="260.3125" y="19.907608695652176" width="88.046875" height="88.046875" as="geometry" />
        </mxCell>
        <mxCell id="cQLUrG2B6Ire7KLlbWOE-303" value="" style="whiteSpace=wrap;html=1;aspect=fixed;" vertex="1" parent="cQLUrG2B6Ire7KLlbWOE-591">
          <mxGeometry x="367.5" y="19.907608695652176" width="55.5078125" height="55.5078125" as="geometry" />
        </mxCell>
        <mxCell id="cQLUrG2B6Ire7KLlbWOE-304" value="" style="whiteSpace=wrap;html=1;aspect=fixed;" vertex="1" parent="cQLUrG2B6Ire7KLlbWOE-591">
          <mxGeometry x="385.109375" y="39.21195652173913" width="55.5078125" height="55.5078125" as="geometry" />
        </mxCell>
        <mxCell id="cQLUrG2B6Ire7KLlbWOE-306" value="" style="whiteSpace=wrap;html=1;aspect=fixed;" vertex="1" parent="cQLUrG2B6Ire7KLlbWOE-591">
          <mxGeometry x="423.0078125" y="70.3804347826087" width="55.5078125" height="55.5078125" as="geometry" />
        </mxCell>
        <mxCell id="cQLUrG2B6Ire7KLlbWOE-312" value="" style="whiteSpace=wrap;html=1;aspect=fixed;fillColor=#fff2cc;strokeColor=#d6b656;" vertex="1" parent="cQLUrG2B6Ire7KLlbWOE-591">
          <mxGeometry x="153.125" y="27.95108695652174" width="22.96875" height="22.96875" as="geometry" />
        </mxCell>
        <mxCell id="cQLUrG2B6Ire7KLlbWOE-314" value="" style="whiteSpace=wrap;html=1;aspect=fixed;fillColor=#CCCCCC;" vertex="1" parent="cQLUrG2B6Ire7KLlbWOE-591">
          <mxGeometry x="275.625" y="33.17934782608696" width="12.25" height="12.25" as="geometry" />
        </mxCell>
        <mxCell id="cQLUrG2B6Ire7KLlbWOE-315" value="" style="whiteSpace=wrap;html=1;aspect=fixed;" vertex="1" parent="cQLUrG2B6Ire7KLlbWOE-591">
          <mxGeometry x="375.15625" y="27.95108695652174" width="7.65625" height="7.65625" as="geometry" />
        </mxCell>
        <mxCell id="cQLUrG2B6Ire7KLlbWOE-317" value="" style="whiteSpace=wrap;html=1;aspect=fixed;" vertex="1" parent="cQLUrG2B6Ire7KLlbWOE-591">
          <mxGeometry x="391.42578125" y="46.048913043478265" width="7.65625" height="7.65625" as="geometry" />
        </mxCell>
        <mxCell id="cQLUrG2B6Ire7KLlbWOE-318" value="" style="whiteSpace=wrap;html=1;aspect=fixed;" vertex="1" parent="cQLUrG2B6Ire7KLlbWOE-591">
          <mxGeometry x="431.4296875" y="77.82065217391305" width="7.65625" height="7.65625" as="geometry" />
        </mxCell>
        <mxCell id="cQLUrG2B6Ire7KLlbWOE-322" value="" style="endArrow=none;html=1;exitX=1;exitY=0;exitDx=0;exitDy=0;entryX=0;entryY=0;entryDx=0;entryDy=0;" edge="1" parent="cQLUrG2B6Ire7KLlbWOE-591" source="cQLUrG2B6Ire7KLlbWOE-312" target="cQLUrG2B6Ire7KLlbWOE-314">
          <mxGeometry width="50" height="50" relative="1" as="geometry">
            <mxPoint x="183.75" y="89.08152173913044" as="sourcePoint" />
            <mxPoint x="222.03125" y="48.86413043478261" as="targetPoint" />
          </mxGeometry>
        </mxCell>
        <mxCell id="cQLUrG2B6Ire7KLlbWOE-323" value="" style="endArrow=none;html=1;exitX=1;exitY=1;exitDx=0;exitDy=0;entryX=0;entryY=1;entryDx=0;entryDy=0;" edge="1" parent="cQLUrG2B6Ire7KLlbWOE-591" source="cQLUrG2B6Ire7KLlbWOE-312" target="cQLUrG2B6Ire7KLlbWOE-314">
          <mxGeometry width="50" height="50" relative="1" as="geometry">
            <mxPoint x="176.09375" y="62.13586956521744" as="sourcePoint" />
            <mxPoint x="275.625" y="68.16847826086962" as="targetPoint" />
          </mxGeometry>
        </mxCell>
        <mxCell id="cQLUrG2B6Ire7KLlbWOE-325" value="" style="endArrow=none;html=1;exitX=1;exitY=0;exitDx=0;exitDy=0;entryX=0;entryY=0;entryDx=0;entryDy=0;" edge="1" parent="cQLUrG2B6Ire7KLlbWOE-591" source="cQLUrG2B6Ire7KLlbWOE-314" target="cQLUrG2B6Ire7KLlbWOE-315">
          <mxGeometry width="50" height="50" relative="1" as="geometry">
            <mxPoint x="390.46875" y="32.77717391304348" as="sourcePoint" />
            <mxPoint x="428.75" y="-7.440217391304348" as="targetPoint" />
          </mxGeometry>
        </mxCell>
        <mxCell id="cQLUrG2B6Ire7KLlbWOE-333" value="&lt;span style=&quot;font-size: 12px ; background-color: rgb(248 , 249 , 250)&quot;&gt;W&lt;/span&gt;&lt;sup style=&quot;background-color: rgb(248 , 249 , 250)&quot;&gt;1&lt;/sup&gt;&lt;sub style=&quot;background-color: rgb(248 , 249 , 250)&quot;&gt;1&lt;/sub&gt;" style="edgeLabel;html=1;align=center;verticalAlign=middle;resizable=0;points=[];" vertex="1" connectable="0" parent="cQLUrG2B6Ire7KLlbWOE-325">
          <mxGeometry x="0.2279" y="1" relative="1" as="geometry">
            <mxPoint as="offset" />
          </mxGeometry>
        </mxCell>
        <mxCell id="cQLUrG2B6Ire7KLlbWOE-326" value="" style="endArrow=none;html=1;exitX=1;exitY=1;exitDx=0;exitDy=0;" edge="1" parent="cQLUrG2B6Ire7KLlbWOE-591" source="cQLUrG2B6Ire7KLlbWOE-314">
          <mxGeometry width="50" height="50" relative="1" as="geometry">
            <mxPoint x="280.21875" y="68.16847826086956" as="sourcePoint" />
            <mxPoint x="375.15625" y="35.994565217391305" as="targetPoint" />
          </mxGeometry>
        </mxCell>
        <mxCell id="cQLUrG2B6Ire7KLlbWOE-327" value="" style="endArrow=none;html=1;exitX=1;exitY=0;exitDx=0;exitDy=0;entryX=0;entryY=0;entryDx=0;entryDy=0;" edge="1" parent="cQLUrG2B6Ire7KLlbWOE-591" source="cQLUrG2B6Ire7KLlbWOE-314" target="cQLUrG2B6Ire7KLlbWOE-317">
          <mxGeometry width="50" height="50" relative="1" as="geometry">
            <mxPoint x="336.875" y="97.125" as="sourcePoint" />
            <mxPoint x="375.15625" y="56.90760869565217" as="targetPoint" />
          </mxGeometry>
        </mxCell>
        <mxCell id="cQLUrG2B6Ire7KLlbWOE-334" value="&lt;span style=&quot;font-size: 12px ; background-color: rgb(248 , 249 , 250)&quot;&gt;W&lt;/span&gt;&lt;sup style=&quot;background-color: rgb(248 , 249 , 250)&quot;&gt;1&lt;/sup&gt;&lt;sub style=&quot;background-color: rgb(248 , 249 , 250)&quot;&gt;2&lt;/sub&gt;" style="edgeLabel;html=1;align=center;verticalAlign=middle;resizable=0;points=[];" vertex="1" connectable="0" parent="cQLUrG2B6Ire7KLlbWOE-327">
          <mxGeometry x="0.474" y="-2" relative="1" as="geometry">
            <mxPoint as="offset" />
          </mxGeometry>
        </mxCell>
        <mxCell id="cQLUrG2B6Ire7KLlbWOE-328" value="" style="endArrow=none;html=1;exitX=1;exitY=1;exitDx=0;exitDy=0;entryX=0.25;entryY=1;entryDx=0;entryDy=0;" edge="1" parent="cQLUrG2B6Ire7KLlbWOE-591" source="cQLUrG2B6Ire7KLlbWOE-314" target="cQLUrG2B6Ire7KLlbWOE-317">
          <mxGeometry width="50" height="50" relative="1" as="geometry">
            <mxPoint x="336.875" y="97.125" as="sourcePoint" />
            <mxPoint x="375.15625" y="56.90760869565217" as="targetPoint" />
          </mxGeometry>
        </mxCell>
        <mxCell id="cQLUrG2B6Ire7KLlbWOE-329" value="" style="endArrow=none;html=1;exitX=1;exitY=0;exitDx=0;exitDy=0;entryX=0;entryY=0;entryDx=0;entryDy=0;" edge="1" parent="cQLUrG2B6Ire7KLlbWOE-591" source="cQLUrG2B6Ire7KLlbWOE-314" target="cQLUrG2B6Ire7KLlbWOE-318">
          <mxGeometry width="50" height="50" relative="1" as="geometry">
            <mxPoint x="336.875" y="97.125" as="sourcePoint" />
            <mxPoint x="375.15625" y="56.90760869565217" as="targetPoint" />
          </mxGeometry>
        </mxCell>
        <mxCell id="cQLUrG2B6Ire7KLlbWOE-335" value="&lt;span style=&quot;font-size: 12px ; background-color: rgb(248 , 249 , 250)&quot;&gt;W&lt;/span&gt;&lt;sup style=&quot;background-color: rgb(248 , 249 , 250)&quot;&gt;1&lt;/sup&gt;&lt;span style=&quot;background-color: rgb(248 , 249 , 250)&quot;&gt;&lt;sub&gt;8&lt;/sub&gt;&lt;/span&gt;" style="edgeLabel;html=1;align=center;verticalAlign=middle;resizable=0;points=[];" vertex="1" connectable="0" parent="cQLUrG2B6Ire7KLlbWOE-329">
          <mxGeometry x="0.2313" y="-1" relative="1" as="geometry">
            <mxPoint as="offset" />
          </mxGeometry>
        </mxCell>
        <mxCell id="cQLUrG2B6Ire7KLlbWOE-331" value="" style="endArrow=none;html=1;exitX=1;exitY=1;exitDx=0;exitDy=0;entryX=0;entryY=1;entryDx=0;entryDy=0;" edge="1" parent="cQLUrG2B6Ire7KLlbWOE-591" source="cQLUrG2B6Ire7KLlbWOE-314" target="cQLUrG2B6Ire7KLlbWOE-318">
          <mxGeometry width="50" height="50" relative="1" as="geometry">
            <mxPoint x="313.90625" y="89.08152173913044" as="sourcePoint" />
            <mxPoint x="352.1875" y="48.86413043478261" as="targetPoint" />
          </mxGeometry>
        </mxCell>
        <mxCell id="cQLUrG2B6Ire7KLlbWOE-336" value="" style="endArrow=none;dashed=1;html=1;dashPattern=1 3;strokeWidth=2;" edge="1" parent="cQLUrG2B6Ire7KLlbWOE-591">
          <mxGeometry width="50" height="50" relative="1" as="geometry">
            <mxPoint x="416.9746875" y="119.04347826086956" as="sourcePoint" />
            <mxPoint x="402.61921875" y="102.7554347826087" as="targetPoint" />
          </mxGeometry>
        </mxCell>
        <mxCell id="cQLUrG2B6Ire7KLlbWOE-339" value="" style="whiteSpace=wrap;html=1;aspect=fixed;" vertex="1" parent="cQLUrG2B6Ire7KLlbWOE-591">
          <mxGeometry x="15.3125" y="16.086956521739133" width="99.53125" height="99.53125" as="geometry" />
        </mxCell>
        <mxCell id="cQLUrG2B6Ire7KLlbWOE-340" value="" style="whiteSpace=wrap;html=1;aspect=fixed;fillColor=#dae8fc;strokeColor=#6c8ebf;" vertex="1" parent="cQLUrG2B6Ire7KLlbWOE-591">
          <mxGeometry x="30.625" y="27.54891304347826" width="22.96875" height="22.96875" as="geometry" />
        </mxCell>
        <mxCell id="cQLUrG2B6Ire7KLlbWOE-341" value="" style="endArrow=none;html=1;exitX=1;exitY=0;exitDx=0;exitDy=0;entryX=0;entryY=0;entryDx=0;entryDy=0;" edge="1" parent="cQLUrG2B6Ire7KLlbWOE-591" source="cQLUrG2B6Ire7KLlbWOE-340" target="cQLUrG2B6Ire7KLlbWOE-312">
          <mxGeometry width="50" height="50" relative="1" as="geometry">
            <mxPoint x="267.96875" y="113.21195652173914" as="sourcePoint" />
            <mxPoint x="306.25" y="72.99456521739131" as="targetPoint" />
          </mxGeometry>
        </mxCell>
        <mxCell id="cQLUrG2B6Ire7KLlbWOE-342" value="" style="endArrow=none;html=1;exitX=1;exitY=1;exitDx=0;exitDy=0;entryX=0;entryY=1;entryDx=0;entryDy=0;" edge="1" parent="cQLUrG2B6Ire7KLlbWOE-591" source="cQLUrG2B6Ire7KLlbWOE-340" target="cQLUrG2B6Ire7KLlbWOE-312">
          <mxGeometry width="50" height="50" relative="1" as="geometry">
            <mxPoint x="267.96875" y="113.21195652173914" as="sourcePoint" />
            <mxPoint x="306.25" y="72.99456521739131" as="targetPoint" />
          </mxGeometry>
        </mxCell>
        <mxCell id="cQLUrG2B6Ire7KLlbWOE-364" value="" style="endArrow=none;dashed=1;html=1;dashPattern=1 3;strokeWidth=2;" edge="1" parent="cQLUrG2B6Ire7KLlbWOE-591">
          <mxGeometry width="50" height="50" relative="1" as="geometry">
            <mxPoint x="416.9746874999999" y="244.52173913043478" as="sourcePoint" />
            <mxPoint x="402.6192187499999" y="228.2336956521739" as="targetPoint" />
          </mxGeometry>
        </mxCell>
        <mxCell id="cQLUrG2B6Ire7KLlbWOE-366" value="" style="whiteSpace=wrap;html=1;aspect=fixed;fillColor=#CCCCCC;" vertex="1" parent="cQLUrG2B6Ire7KLlbWOE-591">
          <mxGeometry x="459.375" y="111.80434782608695" width="10.52734375" height="10.52734375" as="geometry" />
        </mxCell>
        <mxCell id="cQLUrG2B6Ire7KLlbWOE-369" value="" style="endArrow=none;html=1;entryX=1;entryY=1;entryDx=0;entryDy=0;exitX=1;exitY=0;exitDx=0;exitDy=0;" edge="1" parent="cQLUrG2B6Ire7KLlbWOE-591" source="cQLUrG2B6Ire7KLlbWOE-346" target="cQLUrG2B6Ire7KLlbWOE-366">
          <mxGeometry width="50" height="50" relative="1" as="geometry">
            <mxPoint x="474.6875" y="241.30434782608697" as="sourcePoint" />
            <mxPoint x="467.03125" y="152.82608695652175" as="targetPoint" />
          </mxGeometry>
        </mxCell>
        <mxCell id="cQLUrG2B6Ire7KLlbWOE-370" value="" style="endArrow=none;html=1;entryX=0;entryY=1;entryDx=0;entryDy=0;exitX=0;exitY=0;exitDx=0;exitDy=0;" edge="1" parent="cQLUrG2B6Ire7KLlbWOE-591" source="cQLUrG2B6Ire7KLlbWOE-346" target="cQLUrG2B6Ire7KLlbWOE-366">
          <mxGeometry width="50" height="50" relative="1" as="geometry">
            <mxPoint x="459.375" y="233.2608695652174" as="sourcePoint" />
            <mxPoint x="459.375" y="131.71195652173913" as="targetPoint" />
          </mxGeometry>
        </mxCell>
        <mxCell id="cQLUrG2B6Ire7KLlbWOE-346" value="" style="whiteSpace=wrap;html=1;aspect=fixed;fillColor=#CCCCCC;" vertex="1" parent="cQLUrG2B6Ire7KLlbWOE-591">
          <mxGeometry x="459.375" y="241.30434782608697" width="10.52734375" height="10.52734375" as="geometry" />
        </mxCell>
        <mxCell id="cQLUrG2B6Ire7KLlbWOE-386" value="" style="rounded=1;whiteSpace=wrap;html=1;fillColor=none;" vertex="1" parent="cQLUrG2B6Ire7KLlbWOE-591">
          <mxGeometry width="237.34375" height="136.73913043478262" as="geometry" />
        </mxCell>
        <mxCell id="cQLUrG2B6Ire7KLlbWOE-437" value="" style="whiteSpace=wrap;html=1;aspect=fixed;" vertex="1" parent="cQLUrG2B6Ire7KLlbWOE-591">
          <mxGeometry x="351.23046875" y="296.04021739130434" width="55.5078125" height="55.5078125" as="geometry" />
        </mxCell>
        <mxCell id="cQLUrG2B6Ire7KLlbWOE-443" value="" style="shape=curlyBracket;whiteSpace=wrap;html=1;rounded=1;fillColor=none;direction=south;rotation=-135;" vertex="1" parent="cQLUrG2B6Ire7KLlbWOE-591">
          <mxGeometry x="342.54828125" y="356.11695652173916" width="11.73703125" height="8.043478260869566" as="geometry" />
        </mxCell>
        <mxCell id="cQLUrG2B6Ire7KLlbWOE-445" value="" style="whiteSpace=wrap;html=1;aspect=fixed;" vertex="1" parent="cQLUrG2B6Ire7KLlbWOE-591">
          <mxGeometry x="397.7421875" y="297.60869565217394" width="7.65625" height="7.65625" as="geometry" />
        </mxCell>
        <mxCell id="cQLUrG2B6Ire7KLlbWOE-526" value="" style="whiteSpace=wrap;html=1;aspect=fixed;" vertex="1" parent="cQLUrG2B6Ire7KLlbWOE-591">
          <mxGeometry x="357.72296875" y="303.85847826086956" width="55.5078125" height="55.5078125" as="geometry" />
        </mxCell>
        <mxCell id="cQLUrG2B6Ire7KLlbWOE-349" value="" style="whiteSpace=wrap;html=1;aspect=fixed;" vertex="1" parent="cQLUrG2B6Ire7KLlbWOE-591">
          <mxGeometry x="403.8671875" y="305.6521739130435" width="7.65625" height="7.65625" as="geometry" />
        </mxCell>
        <mxCell id="cQLUrG2B6Ire7KLlbWOE-355" value="" style="endArrow=none;html=1;entryX=1;entryY=0;entryDx=0;entryDy=0;exitX=0;exitY=1;exitDx=0;exitDy=0;" edge="1" parent="cQLUrG2B6Ire7KLlbWOE-591" source="cQLUrG2B6Ire7KLlbWOE-346" target="cQLUrG2B6Ire7KLlbWOE-349">
          <mxGeometry width="50" height="50" relative="1" as="geometry">
            <mxPoint x="459.375" y="249.34782608695653" as="sourcePoint" />
            <mxPoint x="375.15625" y="279.9130434782609" as="targetPoint" />
          </mxGeometry>
        </mxCell>
        <mxCell id="cQLUrG2B6Ire7KLlbWOE-358" value="" style="endArrow=none;html=1;exitX=1;exitY=1;exitDx=0;exitDy=0;entryX=1;entryY=1;entryDx=0;entryDy=0;" edge="1" parent="cQLUrG2B6Ire7KLlbWOE-591" source="cQLUrG2B6Ire7KLlbWOE-346" target="cQLUrG2B6Ire7KLlbWOE-349">
          <mxGeometry width="50" height="50" relative="1" as="geometry">
            <mxPoint x="283.28125" y="286.75" as="sourcePoint" />
            <mxPoint x="321.5625" y="246.5326086956522" as="targetPoint" />
          </mxGeometry>
        </mxCell>
        <mxCell id="cQLUrG2B6Ire7KLlbWOE-535" value="W&lt;span style=&quot;font-size: 8.33333px&quot;&gt;&lt;sup&gt;2&lt;/sup&gt;&lt;sub&gt;8&lt;/sub&gt;&lt;/span&gt;" style="edgeLabel;html=1;align=center;verticalAlign=middle;resizable=0;points=[];" vertex="1" connectable="0" parent="cQLUrG2B6Ire7KLlbWOE-358">
          <mxGeometry x="0.1822" y="1" relative="1" as="geometry">
            <mxPoint as="offset" />
          </mxGeometry>
        </mxCell>
        <mxCell id="cQLUrG2B6Ire7KLlbWOE-532" value="" style="endArrow=none;html=1;entryX=1;entryY=0;entryDx=0;entryDy=0;exitX=0;exitY=1;exitDx=0;exitDy=0;" edge="1" parent="cQLUrG2B6Ire7KLlbWOE-591" source="cQLUrG2B6Ire7KLlbWOE-346" target="cQLUrG2B6Ire7KLlbWOE-445">
          <mxGeometry width="50" height="50" relative="1" as="geometry">
            <mxPoint x="467.03125" y="260.4076086956522" as="sourcePoint" />
            <mxPoint x="419.1796875" y="313.69565217391306" as="targetPoint" />
          </mxGeometry>
        </mxCell>
        <mxCell id="cQLUrG2B6Ire7KLlbWOE-533" value="" style="endArrow=none;html=1;entryX=1;entryY=0;entryDx=0;entryDy=0;exitX=0;exitY=1;exitDx=0;exitDy=0;" edge="1" parent="cQLUrG2B6Ire7KLlbWOE-591" source="cQLUrG2B6Ire7KLlbWOE-346" target="cQLUrG2B6Ire7KLlbWOE-529">
          <mxGeometry width="50" height="50" relative="1" as="geometry">
            <mxPoint x="467.03125" y="260.4076086956522" as="sourcePoint" />
            <mxPoint x="413.0546875" y="305.6521739130435" as="targetPoint" />
          </mxGeometry>
        </mxCell>
        <mxCell id="cQLUrG2B6Ire7KLlbWOE-536" value="W&lt;font size=&quot;1&quot;&gt;&lt;sup&gt;2&lt;/sup&gt;&lt;sub&gt;2&lt;/sub&gt;&lt;/font&gt;" style="edgeLabel;html=1;align=center;verticalAlign=middle;resizable=0;points=[];" vertex="1" connectable="0" parent="cQLUrG2B6Ire7KLlbWOE-533">
          <mxGeometry x="0.2322" y="-1" relative="1" as="geometry">
            <mxPoint as="offset" />
          </mxGeometry>
        </mxCell>
        <mxCell id="cQLUrG2B6Ire7KLlbWOE-537" value="W&lt;sup&gt;2&lt;/sup&gt;&lt;sub&gt;1&lt;/sub&gt;" style="edgeLabel;html=1;align=center;verticalAlign=middle;resizable=0;points=[];" vertex="1" connectable="0" parent="cQLUrG2B6Ire7KLlbWOE-533">
          <mxGeometry x="0.7287" y="-1" relative="1" as="geometry">
            <mxPoint y="-1" as="offset" />
          </mxGeometry>
        </mxCell>
        <mxCell id="cQLUrG2B6Ire7KLlbWOE-534" value="" style="endArrow=none;html=1;entryX=1;entryY=0.75;entryDx=0;entryDy=0;exitX=1;exitY=1;exitDx=0;exitDy=0;" edge="1" parent="cQLUrG2B6Ire7KLlbWOE-591" source="cQLUrG2B6Ire7KLlbWOE-346" target="cQLUrG2B6Ire7KLlbWOE-445">
          <mxGeometry width="50" height="50" relative="1" as="geometry">
            <mxPoint x="467.03125" y="257.3913043478261" as="sourcePoint" />
            <mxPoint x="419.1796875" y="321.7391304347826" as="targetPoint" />
          </mxGeometry>
        </mxCell>
        <mxCell id="cQLUrG2B6Ire7KLlbWOE-566" value="" style="group" vertex="1" connectable="0" parent="cQLUrG2B6Ire7KLlbWOE-591">
          <mxGeometry x="145.46875" y="244.5619565217391" width="93.36796875" height="98.09021739130434" as="geometry" />
        </mxCell>
        <mxCell id="cQLUrG2B6Ire7KLlbWOE-501" value="" style="ellipse;whiteSpace=wrap;html=1;aspect=fixed;fillColor=none;" vertex="1" parent="cQLUrG2B6Ire7KLlbWOE-566">
          <mxGeometry width="9.14921875" height="9.14921875" as="geometry" />
        </mxCell>
        <mxCell id="cQLUrG2B6Ire7KLlbWOE-511" value="" style="ellipse;whiteSpace=wrap;html=1;aspect=fixed;fillColor=none;" vertex="1" parent="cQLUrG2B6Ire7KLlbWOE-566">
          <mxGeometry x="7.65625" y="8.043478260869566" width="9.14921875" height="9.14921875" as="geometry" />
        </mxCell>
        <mxCell id="cQLUrG2B6Ire7KLlbWOE-512" value="" style="ellipse;whiteSpace=wrap;html=1;aspect=fixed;fillColor=none;" vertex="1" parent="cQLUrG2B6Ire7KLlbWOE-566">
          <mxGeometry x="15.3125" y="16.086956521739133" width="9.14921875" height="9.14921875" as="geometry" />
        </mxCell>
        <mxCell id="cQLUrG2B6Ire7KLlbWOE-513" value="" style="ellipse;whiteSpace=wrap;html=1;aspect=fixed;fillColor=none;" vertex="1" parent="cQLUrG2B6Ire7KLlbWOE-566">
          <mxGeometry x="22.96875" y="24.13043478260865" width="9.14921875" height="9.14921875" as="geometry" />
        </mxCell>
        <mxCell id="cQLUrG2B6Ire7KLlbWOE-514" value="" style="ellipse;whiteSpace=wrap;html=1;aspect=fixed;fillColor=none;" vertex="1" parent="cQLUrG2B6Ire7KLlbWOE-566">
          <mxGeometry x="30.625" y="32.173913043478215" width="9.14921875" height="9.14921875" as="geometry" />
        </mxCell>
        <mxCell id="cQLUrG2B6Ire7KLlbWOE-515" value="" style="ellipse;whiteSpace=wrap;html=1;aspect=fixed;fillColor=none;" vertex="1" parent="cQLUrG2B6Ire7KLlbWOE-566">
          <mxGeometry x="38.28125" y="40.21739130434778" width="9.14921875" height="9.14921875" as="geometry" />
        </mxCell>
        <mxCell id="cQLUrG2B6Ire7KLlbWOE-516" value="" style="ellipse;whiteSpace=wrap;html=1;aspect=fixed;fillColor=none;" vertex="1" parent="cQLUrG2B6Ire7KLlbWOE-566">
          <mxGeometry x="45.9375" y="48.26086956521735" width="9.14921875" height="9.14921875" as="geometry" />
        </mxCell>
        <mxCell id="cQLUrG2B6Ire7KLlbWOE-517" value="" style="ellipse;whiteSpace=wrap;html=1;aspect=fixed;fillColor=none;" vertex="1" parent="cQLUrG2B6Ire7KLlbWOE-566">
          <mxGeometry x="53.59375" y="56.30434782608691" width="9.14921875" height="9.14921875" as="geometry" />
        </mxCell>
        <mxCell id="cQLUrG2B6Ire7KLlbWOE-520" value="" style="ellipse;whiteSpace=wrap;html=1;aspect=fixed;fillColor=none;" vertex="1" parent="cQLUrG2B6Ire7KLlbWOE-566">
          <mxGeometry x="76.5625" y="80.43478260869561" width="9.14921875" height="9.14921875" as="geometry" />
        </mxCell>
        <mxCell id="cQLUrG2B6Ire7KLlbWOE-521" value="" style="ellipse;whiteSpace=wrap;html=1;aspect=fixed;fillColor=none;" vertex="1" parent="cQLUrG2B6Ire7KLlbWOE-566">
          <mxGeometry x="84.21875" y="88.47826086956518" width="9.14921875" height="9.14921875" as="geometry" />
        </mxCell>
        <mxCell id="cQLUrG2B6Ire7KLlbWOE-522" value="" style="endArrow=none;dashed=1;html=1;dashPattern=1 3;strokeWidth=2;" edge="1" parent="cQLUrG2B6Ire7KLlbWOE-566">
          <mxGeometry width="50" height="50" relative="1" as="geometry">
            <mxPoint x="76.5625" y="81.19891304347826" as="sourcePoint" />
            <mxPoint x="61.25" y="65.11195652173912" as="targetPoint" />
          </mxGeometry>
        </mxCell>
        <mxCell id="cQLUrG2B6Ire7KLlbWOE-568" value="" style="endArrow=none;html=1;entryX=0;entryY=0;entryDx=0;entryDy=0;exitX=0;exitY=0;exitDx=0;exitDy=0;" edge="1" parent="cQLUrG2B6Ire7KLlbWOE-591" source="cQLUrG2B6Ire7KLlbWOE-501" target="cQLUrG2B6Ire7KLlbWOE-552">
          <mxGeometry width="50" height="50" relative="1" as="geometry">
            <mxPoint x="199.0625" y="241.30434782608697" as="sourcePoint" />
            <mxPoint x="237.34375" y="201.08695652173913" as="targetPoint" />
          </mxGeometry>
        </mxCell>
        <mxCell id="cQLUrG2B6Ire7KLlbWOE-569" value="" style="endArrow=none;html=1;entryX=0;entryY=0;entryDx=0;entryDy=0;exitX=1;exitY=1;exitDx=0;exitDy=0;" edge="1" parent="cQLUrG2B6Ire7KLlbWOE-591" source="cQLUrG2B6Ire7KLlbWOE-521" target="cQLUrG2B6Ire7KLlbWOE-526">
          <mxGeometry width="50" height="50" relative="1" as="geometry">
            <mxPoint x="199.0625" y="241.30434782608697" as="sourcePoint" />
            <mxPoint x="237.34375" y="201.08695652173913" as="targetPoint" />
          </mxGeometry>
        </mxCell>
        <mxCell id="cQLUrG2B6Ire7KLlbWOE-582" value="" style="group" vertex="1" connectable="0" parent="cQLUrG2B6Ire7KLlbWOE-591">
          <mxGeometry x="15.3125" y="261.4130434782609" width="237.34375" height="108.58695652173914" as="geometry" />
        </mxCell>
        <mxCell id="cQLUrG2B6Ire7KLlbWOE-573" value="" style="rounded=0;whiteSpace=wrap;html=1;fillColor=none;" vertex="1" parent="cQLUrG2B6Ire7KLlbWOE-582">
          <mxGeometry x="7.619791666666665" y="37.25329029633507" width="13.854166666666666" height="43.181492312360575" as="geometry" />
        </mxCell>
        <mxCell id="cQLUrG2B6Ire7KLlbWOE-574" value="" style="rounded=0;whiteSpace=wrap;html=1;fillColor=none;" vertex="1" parent="cQLUrG2B6Ire7KLlbWOE-582">
          <mxGeometry x="34.63541666666667" width="13.854166666666666" height="80.43478260869566" as="geometry" />
        </mxCell>
        <mxCell id="cQLUrG2B6Ire7KLlbWOE-575" value="" style="rounded=0;whiteSpace=wrap;html=1;fillColor=none;" vertex="1" parent="cQLUrG2B6Ire7KLlbWOE-582">
          <mxGeometry x="62.34375" y="30.726716172552546" width="13.854166666666666" height="49.70806643614308" as="geometry" />
        </mxCell>
        <mxCell id="cQLUrG2B6Ire7KLlbWOE-576" value="" style="rounded=0;whiteSpace=wrap;html=1;fillColor=none;" vertex="1" parent="cQLUrG2B6Ire7KLlbWOE-582">
          <mxGeometry x="90.05208333333333" y="13.744052124562751" width="13.854166666666666" height="66.69073048413289" as="geometry" />
        </mxCell>
        <mxCell id="cQLUrG2B6Ire7KLlbWOE-577" value="" style="rounded=0;whiteSpace=wrap;html=1;fillColor=none;" vertex="1" parent="cQLUrG2B6Ire7KLlbWOE-582">
          <mxGeometry x="114.842109375" y="50.75675982087182" width="13.854166666666666" height="29.678022787823817" as="geometry" />
        </mxCell>
        <mxCell id="cQLUrG2B6Ire7KLlbWOE-578" value="" style="endArrow=classic;html=1;" edge="1" parent="cQLUrG2B6Ire7KLlbWOE-582">
          <mxGeometry width="50" height="50" relative="1" as="geometry">
            <mxPoint y="80.36692597791908" as="sourcePoint" />
            <mxPoint x="145.46875" y="80.36692597791908" as="targetPoint" />
          </mxGeometry>
        </mxCell>
        <mxCell id="cQLUrG2B6Ire7KLlbWOE-579" value="" style="endArrow=classic;html=1;" edge="1" parent="cQLUrG2B6Ire7KLlbWOE-582">
          <mxGeometry width="50" height="50" relative="1" as="geometry">
            <mxPoint y="80.36692597791908" as="sourcePoint" />
            <mxPoint y="18.67907981740396" as="targetPoint" />
          </mxGeometry>
        </mxCell>
        <mxCell id="cQLUrG2B6Ire7KLlbWOE-586" value="" style="rounded=1;whiteSpace=wrap;html=1;fillColor=none;" vertex="1" parent="cQLUrG2B6Ire7KLlbWOE-582">
          <mxGeometry x="-15.3125" y="-40.21739130434783" width="252.65625" height="148.80434782608697" as="geometry" />
        </mxCell>
        <mxCell id="cQLUrG2B6Ire7KLlbWOE-584" value="" style="rounded=1;whiteSpace=wrap;html=1;fillColor=none;" vertex="1" parent="cQLUrG2B6Ire7KLlbWOE-591">
          <mxGeometry x="283.28125" y="144.39652173913043" width="206.71875" height="225.6034782608696" as="geometry" />
        </mxCell>
        <mxCell id="cQLUrG2B6Ire7KLlbWOE-592" value="" style="shape=flexArrow;endArrow=classic;html=1;fontSize=10.5;" edge="1" parent="1">
          <mxGeometry width="50" height="50" relative="1" as="geometry">
            <mxPoint x="-300" y="348" as="sourcePoint" />
            <mxPoint x="-253" y="348" as="targetPoint" />
          </mxGeometry>
        </mxCell>
        <mxCell id="cQLUrG2B6Ire7KLlbWOE-593" value="" style="shape=flexArrow;endArrow=classic;html=1;fontSize=10.5;" edge="1" parent="1">
          <mxGeometry width="50" height="50" relative="1" as="geometry">
            <mxPoint x="-252" y="580" as="sourcePoint" />
            <mxPoint x="-305" y="580" as="targetPoint" />
          </mxGeometry>
        </mxCell>
        <mxCell id="cQLUrG2B6Ire7KLlbWOE-595" value="输入" style="text;html=1;align=center;verticalAlign=middle;resizable=0;points=[];autosize=1;fontSize=10.5;" vertex="1" parent="1">
          <mxGeometry x="-295" y="310" width="40" height="20" as="geometry" />
        </mxCell>
        <mxCell id="cQLUrG2B6Ire7KLlbWOE-596" value="输出" style="text;html=1;align=center;verticalAlign=middle;resizable=0;points=[];autosize=1;fontSize=10.5;" vertex="1" parent="1">
          <mxGeometry x="-295" y="540" width="40" height="20" as="geometry" />
        </mxCell>
      </root>
    </mxGraphModel>
  </diagram>
</mxfile>
